<svg width="100" height="100" viewBox="0 0 100 100" fill="none" xmlns="http://www.w3.org/2000/svg">
<g clip-path="url(#clip0_1_2)">
<path d="M77.2667 26.8667L52.4667 12.1333C51 11.2667 49.3333 10.8 47.6667 10.8C46 10.8 44.3333 11.2667 42.8667 12.1333L18.0667 26.8667C15.1333 28.6 13.2667 31.8667 13.2667 35.4V64.8667C13.2667 68.4 15.0667 71.6 18.0667 73.4L42.8667 88.1333C44.3333 89 46 89.4667 47.6667 89.4667C49.3333 89.4667 51 89 52.4667 88.1333L77.2667 73.4C80.2 71.6667 82.0667 68.4 82.0667 64.8667V35.3333C82.0667 31.8667 80.2667 28.6 77.2667 26.8667ZM43.7333 86.5333L18.9333 71.8C16.5333 70.3333 15 67.6667 15 64.8V35.3333C15 32.4667 16.5333 29.7333 18.9333 28.3333L43.7333 13.6C44.9333 12.8667 46.2667 12.5333 47.6667 12.5333C49.0667 12.5333 50.4 12.9333 51.6 13.6L76.4 28.3333C78.4667 29.5333 79.8 31.6667 80.2 34C79.4 32.2667 77.5333 31.7333 75.3333 33L51.9333 47.5333C49 49.2667 46.8667 51.1333 46.8667 54.6667V83.6C46.8667 85.7333 47.7333 87.0667 49 87.4667C48.6 87.5333 48.1333 87.6 47.6667 87.6C46.3333 87.6667 44.9333 87.2667 43.7333 86.5333Z" fill="#2A3238"/>
</g>
<defs>
<clipPath id="clip0_1_2">
<rect width="100" height="100" fill="white"/>
</clipPath>
</defs>
</svg>
