<svg width="41" height="44" viewBox="0 0 41 44" fill="none" xmlns="http://www.w3.org/2000/svg">
<path d="M38.1165 23.6803C38.044 22.698 37.9648 21.7026 37.8 20.7466C37.5101 19.0408 36.9563 17.3904 36.1585 15.855C35.8151 15.1973 35.3549 14.6075 34.8004 14.1145C34.4074 13.7342 33.895 13.5013 33.35 13.4553C33.0723 13.4441 32.7942 13.4596 32.5194 13.5014C31.7837 13.5613 31.0884 13.8626 30.5416 14.3585C30.4595 14.4209 30.3737 14.4781 30.2845 14.5299L30.2054 14.4903C30.1461 14.4178 30.0736 14.3453 30.0208 14.2662C29.8605 14.0148 29.6306 13.8155 29.359 13.6926C29.0874 13.5697 28.7859 13.5285 28.4913 13.5739C28.1599 13.6007 27.8326 13.6648 27.5156 13.7651C27.5156 13.6464 27.4695 13.5278 27.4431 13.4091C27.3691 13.0219 27.2061 12.6571 26.967 12.3437C26.7279 12.0302 26.4192 11.7765 26.0653 11.6028C26.0653 11.4709 26.1114 11.3457 26.1378 11.2204C26.2714 10.4932 26.5207 9.79209 26.8762 9.14375C27.1745 8.6285 27.6167 8.2115 28.1485 7.9439C28.3046 7.85125 28.4814 7.79911 28.6628 7.79226C28.6864 7.79045 28.71 7.79472 28.7315 7.80467C28.753 7.81463 28.7716 7.82992 28.7855 7.8491C28.7994 7.86828 28.8081 7.8907 28.8109 7.91422C28.8136 7.93774 28.8103 7.96158 28.8012 7.98345C28.7517 8.08652 28.7076 8.19216 28.6693 8.2999C28.5262 8.67017 28.5031 9.07607 28.6034 9.46018C28.7616 10.0469 29.0122 10.2117 29.6055 10.1194H29.7044C29.8813 10.0886 30.0427 9.99889 30.1624 9.86489C30.282 9.73088 30.3529 9.5604 30.3636 9.38107C30.4071 9.10264 30.3722 8.81759 30.2628 8.55791C30.1533 8.29822 29.9736 8.0742 29.7439 7.91094C29.5264 7.75272 29.5264 7.73952 29.6648 7.52856C29.8033 7.3176 30.0867 6.94183 30.3241 6.65176C30.4361 6.49354 30.5614 6.33531 30.7526 6.09139C30.4297 6.17655 30.1359 6.34739 29.9021 6.58583C29.6328 6.85303 29.394 7.14931 29.1901 7.46923C29.1547 7.53278 29.1016 7.58468 29.0372 7.61861C28.9729 7.65255 28.9 7.66708 28.8276 7.66042C28.6057 7.64651 28.383 7.66878 28.1683 7.72635C27.7779 7.82723 27.4125 8.00749 27.0949 8.2559C26.7773 8.50431 26.5143 8.81552 26.3224 9.1701C25.9877 9.78824 25.754 10.4559 25.6302 11.1479C25.6302 11.2468 25.6302 11.3391 25.584 11.4314C25.2939 11.3391 24.9907 11.2534 24.6874 11.1874C24.1798 11.0754 23.659 10.9897 23.1448 10.8776C22.8877 10.8238 22.6362 10.7465 22.3932 10.6468C22.2351 10.5951 22.1023 10.4855 22.0216 10.34C21.9409 10.1945 21.9183 10.0239 21.9581 9.86233C21.9879 9.68386 22.0434 9.51066 22.1229 9.34811C22.4363 8.671 22.885 8.06522 23.4414 7.56812C24.4003 6.65979 25.5834 6.02274 26.8696 5.72221C27.1399 5.65628 27.4036 5.56399 27.6739 5.47829C27.7614 5.45455 27.8384 5.40189 27.8922 5.32888C27.9461 5.25588 27.9737 5.1668 27.9705 5.07613C27.9804 4.94447 27.9804 4.81224 27.9705 4.68057C27.9705 4.3048 27.9178 3.92244 27.8716 3.55325C27.8255 3.18407 27.7793 2.894 27.7332 2.52482C27.7219 2.40993 27.6732 2.30193 27.5946 2.21738C27.516 2.13283 27.4118 2.0764 27.2981 2.05675C26.9929 1.98108 26.6738 1.98108 26.3685 2.05675C25.4144 2.22661 24.4846 2.51219 23.5997 2.90717C22.6534 3.34155 21.8324 4.00832 21.2132 4.84539C20.5294 5.7311 19.9847 6.71594 19.598 7.76591C19.4925 8.06257 19.3804 8.35263 19.2684 8.64271C18.9699 9.48302 18.4479 10.2261 17.7587 10.7919C17.495 11.0094 17.2313 11.2138 16.961 11.405C16.6412 11.2152 16.3409 10.9944 16.0644 10.7457C15.7611 10.4688 15.4645 10.1854 15.1678 9.90189C14.9132 9.64619 14.6376 9.41242 14.3437 9.20308C13.8165 8.83785 13.217 8.59001 12.5858 8.47628C11.9546 8.36255 11.3064 8.38558 10.6848 8.54382C10.2973 8.62533 9.93727 8.80521 9.63938 9.06615C9.3415 9.32709 9.11579 9.66032 8.98397 10.0337C8.82563 10.3777 8.76627 10.7589 8.81256 11.1347C8.81561 11.1592 8.8272 11.1819 8.84527 11.1988C8.86334 11.2156 8.88676 11.2256 8.91144 11.227C8.92784 11.225 8.94355 11.2192 8.95729 11.21C8.97103 11.2009 8.98241 11.1886 8.99055 11.1742C9.15287 10.8363 9.34949 10.516 9.5773 10.2183C9.82382 9.84327 10.199 9.57127 10.6321 9.4536C11.5342 9.17805 12.5029 9.21522 13.3812 9.55908C14.0481 9.8422 14.658 10.2443 15.181 10.7457C15.4974 11.0358 15.8402 11.3127 16.1435 11.583C16.232 11.6571 16.3269 11.7232 16.427 11.7808L16.2753 11.8731C15.9457 12.0511 15.6161 12.2422 15.2865 12.4202C14.3318 12.9496 13.551 13.7442 13.0384 14.7079C12.9278 14.8897 12.8351 15.0817 12.7615 15.2814V15.2814C12.689 15.3869 12.6033 15.4792 12.5044 15.5978C12.4198 15.5361 12.3384 15.4701 12.2605 15.4001C12.1022 15.255 11.9506 15.1034 11.8056 14.9518C11.5394 14.6777 11.1888 14.5012 10.8101 14.4507C10.3706 14.3836 9.92215 14.406 9.49159 14.5167C8.19367 14.8029 7.04358 15.5501 6.25464 16.6197C5.50304 17.6223 4.96051 18.7656 4.65926 19.9819C4.2294 21.6378 4.00793 23.3408 4 25.0516C4 26.0668 4 27.0887 4.07911 28.1039C4.15822 29.1192 4.27689 30.029 4.45489 30.9849C4.80264 32.7272 5.29211 34.4381 5.91844 36.1007C6.27299 37.0575 6.71433 37.9799 7.23695 38.8564C7.58747 39.4578 8.03269 39.9987 8.55546 40.4584C8.86472 40.7576 9.25048 40.9657 9.67035 41.0599C10.0902 41.1541 10.5279 41.1308 10.9354 40.9924C11.3283 40.8754 11.7048 40.7093 12.0561 40.4979C12.4714 40.2474 12.6165 40.2606 12.9857 40.5639C13.1017 40.658 13.2118 40.7593 13.3153 40.8671C13.4888 41.0451 13.7075 41.1723 13.948 41.2351C14.1885 41.2978 14.4416 41.2937 14.6799 41.2231C15.0557 41.1111 15.4249 40.9792 15.7941 40.8473C16.0446 40.755 16.2819 40.6364 16.5193 40.5309C16.7151 40.442 16.9309 40.4061 17.145 40.427C17.359 40.4478 17.5639 40.5246 17.7389 40.6496C17.8641 40.7287 17.9828 40.821 18.1015 40.9067C18.2201 40.9924 18.4047 41.1572 18.5696 41.2693C18.8898 41.5039 19.2804 41.6225 19.6771 41.6055C20.1243 41.6014 20.5628 41.481 20.9495 41.2561C21.1495 41.1257 21.3803 41.0503 21.6187 41.0376C21.8572 41.0248 22.0948 41.0752 22.3075 41.1836L22.8547 41.4077C23.1448 41.5198 23.4348 41.6385 23.7315 41.7373C24.5835 42.0068 25.4873 42.0701 26.3685 41.9219C27.3047 41.7871 28.2027 41.4594 29.0056 40.9594C29.5791 40.5968 29.533 40.4716 30.3636 40.8276C30.6807 40.9661 31.023 41.0375 31.369 41.0375C31.715 41.0375 32.0573 40.9661 32.3743 40.8276C33.0698 40.5252 33.7043 40.0985 34.2466 39.5684C35.0159 38.8093 35.6393 37.9155 36.086 36.9314C36.6021 35.8468 37.017 34.7169 37.3254 33.556C37.6383 32.3823 37.8696 31.1884 38.0176 29.9828C38.156 28.8555 38.2483 27.7282 38.2747 26.5942C38.2351 25.5878 38.1824 24.6165 38.1165 23.6803ZM29.355 8.26035C29.5287 8.4596 29.6435 8.70325 29.6866 8.96407C29.7297 9.22488 29.6993 9.49254 29.5989 9.73707C29.5904 9.75527 29.5769 9.77067 29.56 9.78146C29.543 9.79224 29.5234 9.79795 29.5033 9.79795C29.4832 9.79795 29.4636 9.79224 29.4466 9.78146C29.4297 9.77067 29.4162 9.75527 29.4077 9.73707C29.2759 9.54198 29.2027 9.31321 29.1967 9.07782C29.1804 8.79639 29.2348 8.51535 29.355 8.26035ZM28.7748 21.874C29.2143 20.9422 29.6538 20.0083 30.0933 19.0721C30.179 18.8941 30.2845 18.7227 30.3702 18.5513C30.4051 18.4854 30.4573 18.4304 30.5212 18.392C30.5851 18.3537 30.6583 18.3335 30.7328 18.3338C31.0558 18.3338 31.1218 18.3338 31.2009 18.6964C31.2579 18.9539 31.2691 19.2195 31.2338 19.4809C31.1883 19.8382 31.1222 20.1925 31.0361 20.5423C30.7328 21.6894 30.4164 22.8233 30.0999 23.9638C29.9763 24.4756 29.788 24.9697 29.5396 25.4339C29.4968 25.4939 29.4779 25.5675 29.4864 25.6406C29.4949 25.7137 29.5303 25.781 29.5857 25.8295C29.9361 26.2194 30.3103 26.5871 30.7064 26.9304C31.2973 27.4274 31.9181 27.8876 32.5655 28.3083L33.1391 28.6973C33.2024 28.7369 33.2494 28.7981 33.2712 28.8695C33.293 28.941 33.2882 29.018 33.2578 29.0862C33.205 29.2444 33.1325 29.3038 32.9677 29.2774C32.6578 29.2313 32.348 29.1785 32.0447 29.106C31.098 28.8963 30.1827 28.5639 29.322 28.1171C29.0178 27.9557 28.7229 27.7775 28.4386 27.5831C28.3529 27.5172 28.2738 27.4183 28.1485 27.4117C28.0489 27.4695 27.9651 27.551 27.9046 27.649C27.0164 28.7122 25.87 29.5294 24.5754 30.0224C24.071 30.2227 23.5533 30.388 23.0261 30.5168C22.8507 30.5596 22.6675 30.5596 22.4921 30.5168C22.477 30.5112 22.4633 30.5024 22.452 30.491C22.4406 30.4797 22.4318 30.4659 22.4262 30.4509C22.4203 30.4385 22.4173 30.425 22.4173 30.4113C22.4173 30.3976 22.4203 30.3841 22.4262 30.3718C22.558 30.2663 22.6833 30.1608 22.8151 30.0685C23.3565 29.6656 23.8362 29.1859 24.2391 28.6445C24.9445 27.7809 25.5576 26.8645 26.2169 25.9482C26.2762 25.8691 26.329 25.7834 26.3817 25.7042C26.3979 25.675 26.4064 25.6421 26.4064 25.6087C26.4064 25.5752 26.3979 25.5423 26.3817 25.5131L26.1839 25.1702C25.2578 23.5185 24.6706 21.6986 24.4567 19.8171C24.4567 19.6259 24.4567 19.4281 24.4237 19.2303C24.413 19.1148 24.433 18.9985 24.4816 18.8932C24.5302 18.7879 24.6058 18.6972 24.7006 18.6304C24.9314 18.4458 25.0171 18.4458 25.1423 18.7227C25.8016 20.1665 26.5927 21.518 27.364 22.8892C27.4754 23.1326 27.627 23.3554 27.8123 23.5485C28.1807 23.0191 28.5028 22.4588 28.7748 21.874V21.874ZM9.99923 29.5477C10.6585 28.5588 11.2848 27.5172 11.8649 26.469C11.8974 26.4141 11.9145 26.3515 11.9145 26.2877C11.9145 26.2239 11.8974 26.1613 11.8649 26.1064C11.0402 24.1811 10.5926 22.1154 10.5464 20.0215C10.5179 19.4303 10.5289 18.8378 10.5794 18.2481C10.5794 18.1736 10.6005 18.1008 10.6402 18.0378C10.6798 17.9748 10.7364 17.9243 10.8035 17.8921C10.8628 17.8921 10.9354 17.8591 10.9617 17.9448C10.984 18.0224 10.9995 18.1018 11.0079 18.1821C11.0954 18.8828 11.2567 19.5722 11.4891 20.239C11.9176 21.4652 12.3725 22.6783 12.8868 23.8649C12.9461 23.9968 12.9659 24.155 13.1043 24.2473C13.1966 24.2473 13.2164 24.1418 13.2559 24.0759C14.0207 22.8101 14.759 21.5289 15.471 20.2324C15.6754 19.8566 15.8996 19.4941 16.1303 19.1315C16.1907 19.017 16.2936 18.9308 16.4169 18.8914C16.5401 18.8519 16.6739 18.8624 16.7896 18.9205C16.8227 18.9284 16.8518 18.9482 16.8713 18.9761C16.8907 19.0041 16.8992 19.0383 16.895 19.0721C16.8866 19.185 16.8712 19.2973 16.8489 19.4083C16.783 19.6984 16.7236 19.9885 16.6313 20.272C16.3413 21.1224 16.1039 21.9992 15.7809 22.8431C15.4851 23.661 15.1258 24.4545 14.7063 25.2164C14.5349 25.5131 14.3965 25.8295 14.2382 26.1394C14.1997 26.2018 14.1793 26.2737 14.1793 26.347C14.1793 26.4204 14.1997 26.4923 14.2382 26.5547C14.9211 27.8136 15.7951 28.959 16.8291 29.9499L17.785 30.8069C17.8391 30.8429 17.8816 30.8939 17.9073 30.9535C17.9331 31.0132 17.941 31.079 17.9301 31.1431C17.9293 31.1593 17.9251 31.1752 17.918 31.1897C17.9108 31.2042 17.9007 31.2172 17.8884 31.2277C17.876 31.2382 17.8617 31.246 17.8462 31.2508C17.8306 31.2555 17.8143 31.257 17.7982 31.2552C17.7495 31.2488 17.7025 31.2332 17.6598 31.209C17.3895 31.0838 17.1192 30.9783 16.8555 30.8333C15.5957 30.1577 14.4298 29.3199 13.3878 28.3413L13.2164 28.1633C13.1636 28.1039 13.1307 28.0248 13.0384 28.0116C12.9461 27.9985 12.8802 28.1765 12.8011 28.2622C12.1976 28.9767 11.519 29.6243 10.7771 30.1938C10.483 30.434 10.1481 30.6194 9.78826 30.7409C9.69178 30.7881 9.58581 30.8126 9.47841 30.8126C9.37102 30.8126 9.26504 30.7881 9.16856 30.7409L9.99923 29.5477ZM35.6772 28.3083C35.5797 29.1239 35.4188 29.9306 35.196 30.7212C34.9718 31.4991 34.7411 32.2638 34.4971 33.0352C34.235 33.8309 33.874 34.5906 33.4226 35.2964C33.3171 35.4612 33.1852 35.6129 33.0666 35.7645C33.0475 35.793 33.0204 35.8151 32.9887 35.828C32.957 35.841 32.9221 35.8441 32.8886 35.837C32.9885 35.2381 33.0129 34.629 32.9611 34.024C32.9537 33.8932 32.9361 33.7632 32.9084 33.6351C32.8358 33.3318 32.7106 33.2527 32.4073 33.3516C31.9531 33.5054 31.5371 33.7549 31.1877 34.0834C31.047 34.2244 30.9626 34.4119 30.9504 34.6108C30.8976 34.98 30.8449 35.3557 30.7987 35.7315C30.7526 36.1073 30.6932 36.3908 30.6669 36.7072C30.6663 36.8284 30.624 36.9456 30.5472 37.0392C30.4704 37.1329 30.3636 37.1972 30.245 37.2214C29.5 37.4324 28.7484 37.617 27.9903 37.762C26.83 37.9796 25.6565 38.1048 24.4831 38.2433H24.4303C24.2655 38.2433 24.2128 38.2103 24.2326 38.0587C24.2868 37.6214 24.3022 37.1802 24.2787 36.7402C24.2678 36.4124 24.2303 36.0862 24.1666 35.7645C24.1504 35.6675 24.1238 35.5724 24.0875 35.481C24.0652 35.4013 24.0192 35.3303 23.9556 35.2774C23.8921 35.2244 23.8139 35.1919 23.7315 35.1843C23.1903 35.1113 22.6397 35.208 22.1559 35.4612C22.0815 35.4968 22.0172 35.5504 21.9689 35.6172C21.9205 35.684 21.8896 35.7618 21.879 35.8436C21.8545 35.9722 21.8369 36.1021 21.8263 36.2326C21.7867 36.8391 21.7538 37.4456 21.7208 38.0521C21.7208 38.1048 21.7208 38.151 21.7208 38.1971C21.7208 38.3949 21.6812 38.4411 21.4966 38.4476H20.3166C20.0529 38.4476 19.7958 38.4476 19.5716 38.4476C19.5299 38.4092 19.5007 38.3591 19.4878 38.3039C19.4748 38.2486 19.4788 38.1908 19.4991 38.1378C19.5465 37.5812 19.5243 37.021 19.4332 36.4699C19.3607 35.9095 19.209 35.8106 18.6355 35.8832C18.2596 35.9258 17.8939 36.0328 17.5543 36.1996C17.3981 36.2568 17.2664 36.366 17.1812 36.5089C17.096 36.6517 17.0625 36.8195 17.0862 36.9841C17.0862 37.1951 17.1192 37.406 17.1324 37.6434C17.1455 37.8807 17.1653 38.0323 17.1719 38.2301C17.1729 38.2503 17.1696 38.2704 17.1623 38.2892C17.155 38.308 17.1439 38.3251 17.1296 38.3394C17.1153 38.3537 17.0982 38.3648 17.0794 38.3721C17.0606 38.3794 17.0405 38.3827 17.0203 38.3817H16.8225L16.1633 38.3356C15.8856 38.2992 15.606 38.2794 15.326 38.2763C14.6074 38.2763 13.8822 38.2762 13.1636 38.1905C12.8208 38.1905 12.5044 38.1048 12.1352 38.0521C12.0781 38.0487 12.0244 38.0236 11.9852 37.982C11.9459 37.9403 11.9241 37.8852 11.9242 37.8279C11.9242 37.5774 11.8847 37.3335 11.8649 37.0896C11.8254 36.6808 11.7924 36.2721 11.7594 35.8634C11.7595 35.8138 11.7402 35.7661 11.7058 35.7305C11.6714 35.6948 11.6244 35.6739 11.5748 35.6722L10.1508 35.5601C10.118 35.5544 10.0842 35.5559 10.052 35.5644C10.0197 35.573 9.98968 35.5885 9.96398 35.6098C9.93828 35.6311 9.91752 35.6578 9.90312 35.6879C9.88872 35.718 9.88101 35.7509 9.88055 35.7843C9.85086 36.0956 9.85086 36.4091 9.88055 36.7204C9.88055 36.8852 9.88056 37.05 9.91352 37.2148C9.91121 37.2306 9.90511 37.2455 9.89578 37.2584C9.88644 37.2713 9.87414 37.2818 9.85991 37.2889C9.84567 37.296 9.82991 37.2996 9.81399 37.2993C9.79808 37.2991 9.78247 37.295 9.76849 37.2874C9.57898 37.1856 9.41976 37.0355 9.307 36.8523C8.82507 36.1476 8.41012 35.3994 8.0676 34.6174C7.47318 33.1918 7.01624 31.7128 6.70295 30.2004C6.47727 29.2417 6.34261 28.2638 6.3008 27.2799C6.68316 28.005 7.12486 28.6709 7.45449 29.4093C7.75105 30.0694 8.11561 30.6969 8.54226 31.2815C9.15403 32.1613 9.96495 32.8842 10.909 33.3912C11.232 33.556 11.5682 33.6878 11.9045 33.8197C11.967 33.836 12.0229 33.8715 12.0642 33.9211C12.1056 33.9708 12.1304 34.0321 12.1352 34.0966C12.1901 34.5204 12.2782 34.9392 12.3989 35.3492C12.4319 35.4546 12.4648 35.5667 12.5044 35.6722C12.5293 35.7607 12.5804 35.8395 12.651 35.8984C12.7216 35.9572 12.8084 35.9933 12.8999 36.0018C13.469 36.1061 14.0559 36.049 14.5942 35.837C14.7469 35.7761 14.8806 35.6756 14.9814 35.5458C15.0823 35.416 15.1466 35.2616 15.1678 35.0986C15.2008 34.8679 15.2271 34.6437 15.2601 34.4394C15.293 34.235 15.2996 34.1823 15.5699 34.1757C16.572 34.1757 17.5477 34.1757 18.5761 34.1361C20.3005 34.0835 22.02 33.925 23.7249 33.6615C24.6479 33.523 25.5643 33.3121 26.4806 33.1406L26.6256 33.1077C26.7179 33.1077 26.7905 33.1077 26.8036 33.2198C26.8432 33.4307 26.8696 33.6417 26.9157 33.879C26.9619 34.1163 27.0344 34.3866 27.1003 34.6437C27.1175 34.7164 27.1603 34.7804 27.2208 34.824C27.2814 34.8676 27.3556 34.8878 27.4299 34.8811H27.5816L29.0649 34.5383C29.1141 34.5259 29.1626 34.5105 29.2099 34.4921C29.4277 34.4395 29.6209 34.3141 29.7576 34.1367C29.8943 33.9592 29.9662 33.7404 29.9615 33.5164C29.9615 33.1407 30.0274 32.7649 30.0472 32.3891C30.0454 32.324 30.066 32.2604 30.1057 32.2088C30.1453 32.1571 30.2014 32.1207 30.2647 32.1056C30.924 31.8749 31.5832 31.598 32.2425 31.387C33.1695 31.0755 33.964 30.4598 34.4971 29.64C34.7521 29.2627 34.9727 28.8634 35.1564 28.4467C35.2619 28.2226 35.3674 27.9985 35.486 27.7875C35.486 27.7413 35.5322 27.6622 35.6508 27.682C35.6828 27.8892 35.6917 28.0992 35.6772 28.3083V28.3083Z" fill="#2DD4BF"/>
</svg>
