<svg width="50" height="50" viewBox="0 0 50 50" fill="none" xmlns="http://www.w3.org/2000/svg">
<g clip-path="url(#clip0_1_2)">
<path d="M37.6334 13.4333L25.2334 6.06666C24.5 5.63333 23.6667 5.39999 22.8334 5.39999C22 5.39999 21.1667 5.63333 20.4334 6.06666L8.03336 13.4333C6.5667 14.3 5.63336 15.9333 5.63336 17.7V32.4333C5.63336 34.2 6.53336 35.8 8.03336 36.7L20.4334 44.0667C21.1667 44.5 22 44.7333 22.8334 44.7333C23.6667 44.7333 24.5 44.5 25.2334 44.0667L37.6334 36.7C39.1 35.8333 40.0334 34.2 40.0334 32.4333V17.6667C40.0334 15.9333 39.1334 14.3 37.6334 13.4333ZM20.8667 43.2667L8.4667 35.9C7.2667 35.1667 6.50003 33.8333 6.50003 32.4V17.6667C6.50003 16.2333 7.2667 14.8667 8.4667 14.1667L20.8667 6.79999C21.4667 6.43333 22.1334 6.26666 22.8334 6.26666C23.5334 6.26666 24.2 6.46666 24.8 6.79999L37.2 14.1667C38.2334 14.7667 38.9 15.8333 39.1 17C38.7 16.1333 37.7667 15.8667 36.6667 16.5L24.9667 23.7667C23.5 24.6333 22.4334 25.5667 22.4334 27.3333V41.8C22.4334 42.8667 22.8667 43.5333 23.5 43.7333C23.3 43.7667 23.0667 43.8 22.8334 43.8C22.1667 43.8333 21.4667 43.6333 20.8667 43.2667Z" fill="black"/>
</g>
<defs>
<clipPath id="clip0_1_2">
<rect width="50" height="50" fill="white"/>
</clipPath>
</defs>
</svg>
